<svg xmlns="http://www.w3.org/2000/svg" xmlns:xlink="http://www.w3.org/1999/xlink" version="1.1" x="0px" y="0px" viewBox="0 0 90 112.5" enable-background="new 0 0 90 90" xml:space="preserve"><path d="M77.473,30.696c-2.948-5.041-6.99-7.816-11.382-7.816h-9.604v-9.628c0-1.157-0.938-2.096-2.096-2.096H33.207  c-1.157,0-2.096,0.939-2.096,2.096v9.628h-7.385c-4.391,0-8.433,2.776-11.382,7.816c-2.741,4.688-4.251,10.874-4.251,17.422v28.175  c0,1.159,0.939,2.097,2.097,2.097h69.438c1.159,0,2.097-0.938,2.097-2.097V48.117C81.724,41.569,80.214,35.383,77.473,30.696z   M77.473,46.021H54.712c0-0.007,0-0.013,0-0.019c0.001-0.008,0.001-0.016,0.003-0.023c0.009-0.162,0.019-0.322,0.03-0.482  c0.002-0.042,0.007-0.084,0.01-0.127c0.009-0.126,0.019-0.252,0.029-0.377c0.005-0.053,0.011-0.105,0.014-0.158  c0.011-0.114,0.021-0.229,0.032-0.342c0.006-0.058,0.013-0.115,0.018-0.172c0.012-0.109,0.022-0.217,0.034-0.325  c0.008-0.061,0.016-0.122,0.022-0.183c0.013-0.103,0.024-0.207,0.038-0.31c0.008-0.063,0.016-0.125,0.024-0.187  c0.013-0.103,0.028-0.204,0.041-0.305c0.01-0.062,0.019-0.124,0.027-0.186c0.015-0.101,0.03-0.201,0.046-0.301  c0.009-0.062,0.019-0.123,0.029-0.186c0.017-0.099,0.032-0.198,0.048-0.296c0.011-0.062,0.021-0.123,0.032-0.185  c0.018-0.099,0.036-0.198,0.055-0.296c0.01-0.059,0.021-0.118,0.032-0.177c0.021-0.102,0.038-0.201,0.058-0.301  c0.014-0.057,0.023-0.112,0.036-0.169c0.021-0.103,0.042-0.205,0.064-0.308c0.011-0.052,0.021-0.104,0.034-0.157  c0.023-0.108,0.047-0.217,0.073-0.325c0.011-0.044,0.02-0.09,0.03-0.135c0.028-0.119,0.058-0.238,0.086-0.356  c0.009-0.033,0.017-0.065,0.024-0.098c0.114-0.456,0.237-0.905,0.369-1.344c0.009-0.028,0.018-0.057,0.027-0.086  c0.034-0.116,0.069-0.231,0.106-0.345c0.013-0.042,0.025-0.082,0.038-0.124c0.034-0.102,0.066-0.203,0.1-0.303  c0.016-0.046,0.03-0.091,0.047-0.137c0.031-0.094,0.063-0.189,0.097-0.284c0.018-0.048,0.035-0.097,0.053-0.146  c0.031-0.089,0.063-0.178,0.096-0.266c0.019-0.051,0.037-0.1,0.056-0.15c0.033-0.086,0.065-0.172,0.099-0.258  c0.019-0.051,0.039-0.1,0.059-0.15c0.034-0.084,0.067-0.167,0.101-0.251c0.02-0.05,0.041-0.099,0.061-0.149  c0.033-0.083,0.068-0.164,0.103-0.246c0.021-0.049,0.043-0.098,0.063-0.146c0.036-0.082,0.071-0.162,0.106-0.242  c0.021-0.048,0.042-0.096,0.063-0.143c0.038-0.081,0.074-0.161,0.111-0.241c0.021-0.045,0.043-0.091,0.064-0.136  c0.039-0.082,0.079-0.163,0.116-0.243c0.021-0.042,0.043-0.084,0.063-0.125c0.042-0.085,0.084-0.168,0.126-0.251  c0.02-0.037,0.038-0.074,0.057-0.11c0.048-0.091,0.096-0.181,0.145-0.27c0.014-0.027,0.029-0.056,0.043-0.083  c0.061-0.109,0.12-0.217,0.182-0.325c0.005-0.007,0.008-0.014,0.011-0.021c0.132-0.231,0.268-0.456,0.404-0.676  c0.014-0.021,0.028-0.043,0.041-0.064c0.055-0.085,0.108-0.171,0.162-0.254c0.022-0.032,0.044-0.063,0.063-0.095  c0.05-0.072,0.097-0.146,0.146-0.217c0.024-0.035,0.048-0.069,0.074-0.105c0.045-0.066,0.092-0.132,0.138-0.198  c0.027-0.037,0.055-0.073,0.08-0.109c0.046-0.062,0.091-0.124,0.137-0.184c0.027-0.038,0.057-0.075,0.085-0.112  c0.046-0.058,0.09-0.116,0.135-0.173c0.029-0.038,0.059-0.074,0.089-0.111c0.045-0.055,0.09-0.11,0.136-0.165  c0.03-0.037,0.059-0.073,0.091-0.108c0.045-0.054,0.091-0.106,0.136-0.159c0.031-0.035,0.062-0.071,0.094-0.106  c0.046-0.051,0.091-0.102,0.137-0.151c0.032-0.034,0.063-0.068,0.096-0.102c0.047-0.049,0.094-0.098,0.14-0.146  c0.032-0.032,0.062-0.065,0.096-0.098c0.047-0.048,0.096-0.096,0.145-0.142c0.031-0.031,0.062-0.062,0.094-0.091  c0.051-0.048,0.101-0.095,0.151-0.141c0.029-0.028,0.06-0.056,0.09-0.082c0.056-0.049,0.109-0.097,0.164-0.144  c0.026-0.022,0.054-0.046,0.078-0.069c0.065-0.053,0.129-0.104,0.191-0.155c0.02-0.016,0.039-0.032,0.058-0.047  c0.166-0.132,0.335-0.256,0.504-0.373c0.025-0.017,0.05-0.033,0.074-0.05c0.061-0.041,0.12-0.081,0.181-0.119  c0.031-0.021,0.063-0.039,0.096-0.059c0.054-0.034,0.108-0.067,0.161-0.1c0.036-0.02,0.07-0.04,0.105-0.06  c0.052-0.03,0.103-0.059,0.154-0.087c0.038-0.02,0.076-0.038,0.111-0.058c0.051-0.026,0.102-0.053,0.151-0.078  c0.038-0.019,0.077-0.037,0.115-0.054c0.049-0.024,0.1-0.047,0.149-0.07c0.04-0.018,0.078-0.034,0.117-0.051  c0.051-0.021,0.101-0.042,0.149-0.062c0.04-0.016,0.079-0.031,0.119-0.046c0.05-0.019,0.101-0.037,0.15-0.054  c0.04-0.014,0.08-0.028,0.121-0.042c0.05-0.017,0.1-0.032,0.15-0.047c0.04-0.013,0.082-0.025,0.122-0.036  c0.05-0.014,0.101-0.027,0.151-0.041c0.041-0.01,0.081-0.021,0.121-0.03c0.054-0.012,0.105-0.023,0.156-0.034  c0.041-0.007,0.081-0.016,0.121-0.024c0.053-0.01,0.105-0.019,0.159-0.027c0.039-0.006,0.077-0.013,0.117-0.019  c0.057-0.008,0.112-0.014,0.169-0.021c0.036-0.004,0.073-0.01,0.109-0.013c0.062-0.005,0.125-0.009,0.188-0.014  c0.03-0.001,0.062-0.004,0.093-0.006c0.095-0.004,0.188-0.006,0.28-0.006C71.908,27.073,76.88,35.553,77.473,46.021z M23.726,27.073  h23.362c1.156,0,2.096-0.938,2.096-2.097c0-1.157-0.939-2.096-2.096-2.096H35.303v-7.531h16.991v9.627  c0,0.073,0.002,0.145,0.011,0.215c0.007,0.066,0.016,0.131,0.029,0.195c0.19,0.961,1.037,1.687,2.057,1.687h2.975  c-0.033,0.037-0.067,0.076-0.102,0.113c-0.069,0.075-0.137,0.15-0.205,0.227c-0.047,0.054-0.093,0.109-0.142,0.163  c-0.065,0.076-0.13,0.153-0.194,0.23c-0.048,0.057-0.095,0.114-0.141,0.172c-0.065,0.079-0.129,0.158-0.191,0.239  c-0.047,0.059-0.092,0.117-0.138,0.177c-0.063,0.083-0.126,0.166-0.189,0.25c-0.044,0.06-0.089,0.12-0.133,0.181  c-0.062,0.086-0.125,0.175-0.188,0.265c-0.044,0.06-0.086,0.119-0.128,0.18c-0.064,0.094-0.129,0.191-0.192,0.287  c-0.039,0.057-0.078,0.115-0.114,0.173c-0.071,0.108-0.141,0.218-0.21,0.329c-0.031,0.049-0.062,0.097-0.093,0.146  c-0.1,0.161-0.198,0.324-0.296,0.49c-0.163,0.278-0.319,0.562-0.473,0.851c-0.051,0.095-0.099,0.193-0.149,0.289  c-0.102,0.196-0.203,0.393-0.301,0.593c-0.057,0.117-0.11,0.236-0.166,0.354c-0.087,0.185-0.172,0.371-0.257,0.559  c-0.056,0.127-0.11,0.255-0.165,0.384c-0.079,0.185-0.154,0.37-0.23,0.558c-0.054,0.133-0.105,0.267-0.158,0.401  c-0.071,0.188-0.143,0.379-0.212,0.572c-0.049,0.135-0.098,0.271-0.146,0.408c-0.067,0.197-0.133,0.397-0.198,0.597  c-0.044,0.134-0.088,0.268-0.13,0.403c-0.067,0.216-0.131,0.434-0.193,0.651c-0.035,0.124-0.073,0.245-0.107,0.37  c-0.075,0.272-0.146,0.548-0.215,0.824c-0.02,0.073-0.038,0.144-0.056,0.217c-0.086,0.349-0.166,0.701-0.24,1.056  c-0.022,0.109-0.043,0.22-0.065,0.33c-0.051,0.249-0.1,0.498-0.146,0.75c-0.025,0.142-0.049,0.286-0.072,0.428  c-0.039,0.222-0.074,0.445-0.109,0.668c-0.023,0.155-0.045,0.311-0.067,0.466c-0.028,0.215-0.058,0.431-0.085,0.648  c-0.02,0.161-0.039,0.322-0.057,0.484c-0.023,0.216-0.046,0.431-0.065,0.647c-0.016,0.163-0.031,0.328-0.044,0.491  c-0.018,0.22-0.034,0.439-0.048,0.66c-0.01,0.162-0.021,0.324-0.03,0.486c-0.003,0.059-0.008,0.118-0.012,0.176H44.06v-3.766  c0-1.158-0.938-2.096-2.096-2.096H20.781c-1.158,0-2.096,0.938-2.096,2.096v3.766h-6.34C12.938,35.553,17.908,27.073,23.726,27.073z   M39.867,46.021v4.193v1.67h-16.99v-1.67v-4.193v-1.669h16.99V46.021z M77.531,74.197H12.285V50.214h6.399v3.767  c0,1.157,0.938,2.096,2.096,2.096h21.183c1.158,0,2.096-0.938,2.096-2.096v-3.767h6.83v19.878c0,0.921,0.745,1.667,1.665,1.667  c0.921,0,1.667-0.746,1.667-1.667V50.214h23.31V74.197z"/></svg>